<?xml version="1.0" encoding="utf-8"?>
<!-- Generator: Adobe Illustrator 24.0.2, SVG Export Plug-In . SVG Version: 6.00 Build 0)  -->
<svg version="1.1" id="svg2" xmlns:svg="http://www.w3.org/2000/svg"
	 xmlns="http://www.w3.org/2000/svg" xmlns:xlink="http://www.w3.org/1999/xlink" x="0px" y="0px" viewBox="0 0 512 455"
	 style="enable-background:new 0 0 512 455;" xml:space="preserve">
<style type="text/css">
	.st0{fill:none;stroke:#FF2934;stroke-width:15;stroke-miterlimit:10;}
	.st1{fill:none;stroke:#FF2934;stroke-width:20;stroke-miterlimit:10;}
</style>
<path id="path12" d="M103.5,313.7c1.3,3.2,2.5,6.4,3.9,9.3c6.8,12.6,20.1,18.5,33.5,21v-23h-9.7c-1.9-4.8-5.6-8.3-10.6-9.8
	c-1.5-0.8-2.5-2.1-2.8-3.8c-0.2,0-0.2,0-0.2,0c-1.3-10.6-3.1-21.7-5.2-32.9c-1-2.8-0.1-5.4,3-6.4c6.6-0.8,13-2.1,19.3-3.8
	c13.7-0.6,27.5-3.7,39.3-10.9c10.6,5.7,14.4,16.8,20.1,26.6v-0.2c13.5,21.1,24.5,43.7,32.9,67c0.6,1.4,0.8,3,0.8,4.5
	c0,2.4-0.7,4.7-1.9,6.6c-6.4,6.6-10.6,14.7-13.9,23.2l25.5,0.2c0.2-6.1,0.7-12,4.3-17.2c3.2-2.8,5.7-5.2,6.2-9.7
	c-0.7-5.7-4.3-10.8-6.8-15.9l0,0c-3-6.4-4.8-13.1-5.6-20c-1-5.9-2.6-11.7-4.2-17.5c-4.8-15.9-7.1-32.3-10.3-48.6
	c28.7,4.6,57.7,2.4,86-3.4c3.1,16.7,7.9,32.8,13.9,48.6c2.3,8.2-4.1,16.6-8.1,23.2c-8.9,13.2-19,25.5-27.6,38.9
	c-5.2,6.4-9.6,13.7-13,21.4l26.9,0.4l0.8-9.8c0.1-1.4,0.1-2.9,1.4-3.6c3.9-1.2,5.8-4.6,7.2-8.1c3-7.2,6.8-14.1,11.3-20.7
	c8.3-11.4,18.3-21.4,29.7-29.7c0,0,0,0,0.2-0.2c3-1.9,3.5-5.1,3.5-8.3c-1.1-6-2.3-12.1-3.4-18.2c-1-11.8,4.3-23.2,14.1-30.1
	c5.2,8,11.9,14.7,19.3,20.7c8.9,6.3,17.4,13.3,25.2,20.9l0,0c1.9,1.9,3.8,3.8,5.5,5.6c4.1,5.3,6.9,11.5,9.3,17.7
	c4.7,11.9,8.1,23.4,10.4,34.5c0.8,3.6-0.1,7.2-1.9,10.4l0,0c-4.2,5.5-7.6,11.5-10,18.2l25,0.2l0.2-11.3c-0.2-1,0.2-1.6,0.8-2.4h0.2
	c4.3-2.2,6-6,5.3-10.7c-7.7-18.7-10.6-34.5-15.2-51.2l0,0c-1.9-5.9-2.3-12.2-1.5-18.4c0.5-3-0.5-5.7-2.3-8.1c-3-3.6-6-7.6-9.2-11.5
	c-6.5-8.1-9.5-18.3-11.4-28.3c-3.2-15.4-0.3-31.6-1.9-47.6c-2.3-12.8-9.6-24.1-17.7-33.9c36.8,4.7,33,61.3,33.3,90.1
	c0,1.9,0,3.6,0,5.6L461,253c-1.4-51.1-8.1-110.9-73.4-103.2c-15.6-5.2-31.2-10.6-47.8-11c-38.7,0.3-68.5,11.3-106.9,7.3
	c-53.7-6.9-59.8-71.7-118.3-72.8c-7.3,0-14.8,1.1-21.8,3.2c-11.1-2.5-22.6-3.1-33.9-2.3c6,4.8,11.7,9.4,17.3,14.3
	c2.3,14.9,0.6,30,1.1,44.9c-0.2,4.8,1.1,27.2,2.3,37.2c-0.6,8.7,8.8,13.1,17.7,12.2c4.5-0.5,4.8-3.7,11.2-4.5
	c4.1-2.6,2.6-7.6,3-11.7c0.7-10,5.6-19,7.7-28.8c3.5-1.4,6.8-3,9.8-4.7c6.9,10.9,10.6,23.4,10.7,36.1c0.2,11.3,0.4,22.6,0.4,33.8
	c0-0.8,0-0.2,0.2,0.2c0.6,8.6,3,16.9,7,24.3c-14.8,2.5-29,7-42.5,13.5c-5.5,3.1-12.3,5.8-15.9,11.3c-0.2,0-0.2,0-0.2,0.2
	c-1.9,3.1-2.1,6.6-1.4,10C91.5,281.6,96.6,298.9,103.5,313.7z"/>
<circle class="st0" cx="248" cy="214" r="189"/>
<line class="st1" x1="106.2" y1="338.9" x2="371.6" y2="73.6"/>
</svg>
